<?xml version="1.0" encoding="UTF-8"?>
<!DOCTYPE svg PUBLIC "-//W3C//DTD SVG 1.1//EN" "http://www.w3.org/Graphics/SVG/1.1/DTD/svg11.dtd">
<svg xmlns="http://www.w3.org/2000/svg" version="1.1" width="512px" height="512px" style="shape-rendering:geometricPrecision; text-rendering:geometricPrecision; image-rendering:optimizeQuality; fill-rule:evenodd; clip-rule:evenodd" xmlns:xlink="http://www.w3.org/1999/xlink">
<g><path style="opacity:0.999" fill="#daaf05" d="M 232.5,-0.5 C 247.833,-0.5 263.167,-0.5 278.5,-0.5C 368.144,10.3879 435.644,54.7213 481,132.5C 497.695,163.971 507.861,197.304 511.5,232.5C 511.5,247.833 511.5,263.167 511.5,278.5C 500.612,368.144 456.279,435.644 378.5,481C 347.029,497.695 313.696,507.861 278.5,511.5C 263.167,511.5 247.833,511.5 232.5,511.5C 142.856,500.612 75.3562,456.279 30,378.5C 13.3053,347.029 3.1386,313.696 -0.5,278.5C -0.5,263.167 -0.5,247.833 -0.5,232.5C 10.3875,142.857 54.7208,75.3573 132.5,30C 163.971,13.3053 197.304,3.1386 232.5,-0.5 Z"/></g>
<g><path style="opacity:1" fill="#fefdfb" d="M 113.5,117.5 C 207.834,117.333 302.167,117.5 396.5,118C 405.372,119.866 411.538,125.033 415,133.5C 415.667,188.5 415.667,243.5 415,298.5C 412.833,307.333 407.333,312.833 398.5,315C 302.833,315.667 207.167,315.667 111.5,315C 103.225,312.393 98.0587,306.893 96,298.5C 95.3333,243.5 95.3333,188.5 96,133.5C 99.5276,125.465 105.361,120.132 113.5,117.5 Z"/></g>
<g><path style="opacity:1" fill="#dbb113" d="M 117.5,133.5 C 210.248,133.005 302.915,133.505 395.5,135C 396.667,136.167 397.833,137.333 399,138.5C 399.991,191.25 399.658,243.916 398,296.5C 397.097,297.701 395.931,298.535 394.5,299C 301.086,299.995 207.752,299.662 114.5,298C 113.299,297.097 112.465,295.931 112,294.5C 111.333,242.5 111.333,190.5 112,138.5C 113.73,136.598 115.563,134.931 117.5,133.5 Z"/></g>
<g><path style="opacity:1" fill="#fefefd" d="M 120.5,142.5 C 210.833,142.5 301.167,142.5 391.5,142.5C 391.5,191.833 391.5,241.167 391.5,290.5C 386.167,290.5 380.833,290.5 375.5,290.5C 375.667,248.499 375.5,206.499 375,164.5C 374.5,164 374,163.5 373.5,163C 364.167,162.333 354.833,162.333 345.5,163C 344.874,163.75 344.374,164.584 344,165.5C 343.5,207.165 343.333,248.832 343.5,290.5C 340.167,290.5 336.833,290.5 333.5,290.5C 333.667,256.832 333.5,223.165 333,189.5C 332.5,189 332,188.5 331.5,188C 322.167,187.333 312.833,187.333 303.5,188C 302.874,188.75 302.374,189.584 302,190.5C 301.5,223.832 301.333,257.165 301.5,290.5C 298.167,290.5 294.833,290.5 291.5,290.5C 291.667,263.498 291.5,236.498 291,209.5C 290.5,209 290,208.5 289.5,208C 280.5,207.333 271.5,207.333 262.5,208C 261.333,208.5 260.5,209.333 260,210.5C 259.5,237.165 259.333,263.831 259.5,290.5C 213.167,290.5 166.833,290.5 120.5,290.5C 120.5,241.167 120.5,191.833 120.5,142.5 Z"/></g>
<g><path style="opacity:1" fill="#dbb112" d="M 176.5,162.5 C 205.449,160.547 224.616,173.214 234,200.5C 238.28,231.194 225.78,251.361 196.5,261C 174.772,264.882 157.272,258.049 144,240.5C 128.957,212.847 133.79,189.347 158.5,170C 164.328,166.788 170.328,164.288 176.5,162.5 Z"/></g>
<g><path style="opacity:1" fill="#f0df9e" d="M 176.5,172.5 C 177.919,171.549 179.585,171.216 181.5,171.5C 181.829,185.01 181.496,198.344 180.5,211.5C 180.5,198.5 180.5,185.5 180.5,172.5C 179.167,172.5 177.833,172.5 176.5,172.5 Z"/></g>
<g><path style="opacity:1" fill="#fefffe" d="M 352.5,171.5 C 357.167,171.5 361.833,171.5 366.5,171.5C 366.5,211.167 366.5,250.833 366.5,290.5C 361.833,290.5 357.167,290.5 352.5,290.5C 352.5,250.833 352.5,211.167 352.5,171.5 Z"/></g>
<g><path style="opacity:1" fill="#fefefd" d="M 176.5,172.5 C 177.833,172.5 179.167,172.5 180.5,172.5C 180.5,185.5 180.5,198.5 180.5,211.5C 176.046,223.712 170.546,235.379 164,246.5C 152.929,240.045 146.595,230.378 145,217.5C 143.676,194.129 154.176,179.129 176.5,172.5 Z"/></g>
<g><path style="opacity:1" fill="#f3e6b2" d="M 193.5,172.5 C 192.5,172.5 191.5,172.5 190.5,172.5C 190.5,184.167 190.5,195.833 190.5,207.5C 190.167,207.5 189.833,207.5 189.5,207.5C 189.5,195.5 189.5,183.5 189.5,171.5C 191.099,171.232 192.432,171.566 193.5,172.5 Z"/></g>
<g><path style="opacity:1" fill="#fefefd" d="M 193.5,172.5 C 211.577,176.325 222.244,187.325 225.5,205.5C 214.215,207.478 202.548,208.145 190.5,207.5C 190.5,195.833 190.5,184.167 190.5,172.5C 191.5,172.5 192.5,172.5 193.5,172.5 Z"/></g>
<g><path style="opacity:1" fill="#fefffe" d="M 310.5,196.5 C 315.167,196.5 319.833,196.5 324.5,196.5C 324.5,227.833 324.5,259.167 324.5,290.5C 319.833,290.5 315.167,290.5 310.5,290.5C 310.5,259.167 310.5,227.833 310.5,196.5 Z"/></g>
<g><path style="opacity:1" fill="#e9ce67" d="M 225.5,205.5 C 226.404,206.209 226.737,207.209 226.5,208.5C 213.989,208.829 201.655,208.495 189.5,207.5C 189.833,207.5 190.167,207.5 190.5,207.5C 202.548,208.145 214.215,207.478 225.5,205.5 Z"/></g>
<g><path style="opacity:1" fill="#fefffe" d="M 268.5,216.5 C 273.167,216.5 277.833,216.5 282.5,216.5C 282.5,241.167 282.5,265.833 282.5,290.5C 277.833,290.5 273.167,290.5 268.5,290.5C 268.5,265.833 268.5,241.167 268.5,216.5 Z"/></g>
<g><path style="opacity:1" fill="#fefdfb" d="M 188.5,216.5 C 200.833,216.5 213.167,216.5 225.5,216.5C 221.777,239.385 208.277,251.719 185,253.5C 180.692,253.381 176.525,252.548 172.5,251C 177.702,239.429 183.036,227.929 188.5,216.5 Z"/></g>
<g><path style="opacity:1" fill="#fefefc" d="M 213.5,324.5 C 241.508,324.167 269.508,324.5 297.5,325.5C 289.512,349.718 292.845,372.218 307.5,393C 272.833,393.667 238.167,393.667 203.5,393C 218.198,371.877 221.532,349.044 213.5,324.5 Z"/></g>
<g><path style="opacity:1" fill="#fefefe" d="M 176.5,401.5 C 229.168,401.333 281.834,401.5 334.5,402C 337.167,404.333 337.167,406.667 334.5,409C 281.833,409.667 229.167,409.667 176.5,409C 173.914,406.506 173.914,404.006 176.5,401.5 Z"/></g>
</svg>
