<?xml version="1.0" encoding="UTF-8"?>
<!DOCTYPE svg PUBLIC "-//W3C//DTD SVG 1.1//EN" "http://www.w3.org/Graphics/SVG/1.1/DTD/svg11.dtd">
<svg xmlns="http://www.w3.org/2000/svg" version="1.1" width="512px" height="512px" style="shape-rendering:geometricPrecision; text-rendering:geometricPrecision; image-rendering:optimizeQuality; fill-rule:evenodd; clip-rule:evenodd" xmlns:xlink="http://www.w3.org/1999/xlink">
<g><path style="opacity:0.996" fill="#000000" d="M 32.5,0.5 C 181.167,0.333334 329.834,0.500001 478.5,1C 495,5.5 505.5,16 510,32.5C 510.667,181.167 510.667,329.833 510,478.5C 505.5,495 495,505.5 478.5,510C 329.833,510.667 181.167,510.667 32.5,510C 16,505.5 5.5,495 1,478.5C 0.333333,329.833 0.333333,181.167 1,32.5C 5.68266,15.9848 16.1827,5.31811 32.5,0.5 Z"/></g>
<g><path style="opacity:1" fill="#00485f" d="M 469.5,16.5 C 474.781,21.3874 478.281,27.3874 480,34.5C 480.5,51.4967 480.667,68.4967 480.5,85.5C 325.833,85.5 171.167,85.5 16.5,85.5C 16.3334,68.83 16.5001,52.1633 17,35.5C 19.8333,26 26,19.8333 35.5,17C 180.166,16.5 324.833,16.3333 469.5,16.5 Z"/></g>
<g><path style="opacity:1" fill="#003647" d="M 469.5,16.5 C 482.236,17.6127 490.403,24.2794 494,36.5C 494.5,52.8299 494.667,69.1633 494.5,85.5C 489.833,85.5 485.167,85.5 480.5,85.5C 480.667,68.4967 480.5,51.4967 480,34.5C 478.281,27.3874 474.781,21.3874 469.5,16.5 Z"/></g>
<g><path style="opacity:1" fill="#010102" d="M 48.5,31.5 C 63.3899,29.5908 72.0566,35.9241 74.5,50.5C 73.951,63.5498 67.1177,70.5498 54,71.5C 37.4086,67.6479 31.742,57.6479 37,41.5C 39.7942,36.8659 43.6275,33.5326 48.5,31.5 Z"/></g>
<g><path style="opacity:1" fill="#010202" d="M 92.5,31.5 C 104.393,29.3623 112.893,33.6957 118,44.5C 120.31,60.2308 113.643,69.2308 98,71.5C 84.1719,68.8379 77.8385,60.5046 79,46.5C 81.2903,39.3827 85.7903,34.3827 92.5,31.5 Z"/></g>
<g><path style="opacity:1" fill="#000202" d="M 136.5,31.5 C 148.38,29.3561 156.88,33.6895 162,44.5C 163.885,64.283 155.052,72.783 135.5,70C 122.861,62.3238 120.028,51.8238 127,38.5C 130.068,35.9174 133.235,33.5841 136.5,31.5 Z"/></g>
<g><path style="opacity:1" fill="#000102" d="M 305.5,43.5 C 356.168,43.3333 406.834,43.5 457.5,44C 461.753,47.4204 462.587,51.5871 460,56.5C 458.581,57.4601 457.081,58.2935 455.5,59C 405.833,59.6667 356.167,59.6667 306.5,59C 301.391,55.6338 300.224,51.1338 303,45.5C 303.995,44.9341 304.828,44.2674 305.5,43.5 Z"/></g>
<g><path style="opacity:1" fill="#e96054" d="M 52.5,47.5 C 58.704,47.3137 60.0374,49.8137 56.5,55C 50.8121,54.7902 49.4788,52.2902 52.5,47.5 Z"/></g>
<g><path style="opacity:1" fill="#ebc929" d="M 96.5,47.5 C 102.704,47.3137 104.037,49.8137 100.5,55C 94.8121,54.7902 93.4788,52.2902 96.5,47.5 Z"/></g>
<g><path style="opacity:1" fill="#6ac65a" d="M 140.5,47.5 C 146.704,47.3137 148.037,49.8137 144.5,55C 138.95,54.6348 137.617,52.1348 140.5,47.5 Z"/></g>
<g><path style="opacity:1" fill="#60afee" d="M 494.5,102.5 C 489.833,102.5 485.167,102.5 480.5,102.5C 480.667,226.834 480.5,351.167 480,475.5C 478.56,483.053 475.06,489.387 469.5,494.5C 324.833,494.667 180.166,494.5 35.5,494C 26,491.167 19.8333,485 17,475.5C 16.5,350.834 16.3333,226.167 16.5,101.5C 176.001,101.167 335.334,101.5 494.5,102.5 Z"/></g>
<g><path style="opacity:1" fill="#42a4f4" d="M 494.5,102.5 C 494.667,226.834 494.5,351.167 494,475.5C 489.833,486.999 481.666,493.333 469.5,494.5C 475.06,489.387 478.56,483.053 480,475.5C 480.5,351.167 480.667,226.834 480.5,102.5C 485.167,102.5 489.833,102.5 494.5,102.5 Z"/></g>
<g><path style="opacity:1" fill="#040505" d="M 36.5,117.5 C 182.914,117.003 329.247,117.503 475.5,119C 476.333,119.833 477.167,120.667 478,121.5C 478.667,239.167 478.667,356.833 478,474.5C 476.833,475.667 475.667,476.833 474.5,478C 328.5,478.667 182.5,478.667 36.5,478C 35.3333,476.833 34.1667,475.667 33,474.5C 32.3333,356.833 32.3333,239.167 33,121.5C 34.3756,120.295 35.5423,118.962 36.5,117.5 Z"/></g>
<g><path style="opacity:1" fill="#cff0fe" d="M 64.5,133.5 C 64.1695,153.674 64.5029,173.674 65.5,193.5C 59.2674,209.294 57.7674,225.627 61,242.5C 62.607,247.154 64.107,251.82 65.5,256.5C 64.5013,300.33 64.168,344.33 64.5,388.5C 60.3533,393.45 60.6867,398.116 65.5,402.5C 64.1667,408.833 64.1667,415.167 65.5,421.5C 60.2891,426.133 60.2891,430.8 65.5,435.5C 64.5067,444.318 64.1734,453.318 64.5,462.5C 59.1667,462.5 53.8333,462.5 48.5,462.5C 48.5,352.833 48.5,243.167 48.5,133.5C 53.8333,133.5 59.1667,133.5 64.5,133.5 Z"/></g>
<g><path style="opacity:1" fill="#e4f6fd" d="M 64.5,133.5 C 197.167,133.5 329.833,133.5 462.5,133.5C 462.5,243.167 462.5,352.833 462.5,462.5C 457.167,462.5 451.833,462.5 446.5,462.5C 446.667,402.166 446.5,341.832 446,281.5C 444.402,276.901 441.235,274.068 436.5,273C 423.5,272.333 410.5,272.333 397.5,273C 392.473,274.853 389.473,278.353 388.5,283.5C 387.501,342.998 387.168,402.664 387.5,462.5C 382.5,462.5 377.5,462.5 372.5,462.5C 372.667,425.498 372.5,388.498 372,351.5C 370.558,347.725 368.058,344.892 364.5,343C 357.074,341.885 349.574,341.385 342,341.5C 335.5,341.667 329,341.833 322.5,342C 318.333,343.5 315.5,346.333 314,350.5C 313.5,387.832 313.333,425.165 313.5,462.5C 308.167,462.5 302.833,462.5 297.5,462.5C 297.667,413.499 297.5,364.499 297,315.5C 295.474,311.307 292.641,308.474 288.5,307C 274.5,306.333 260.5,306.333 246.5,307C 242.961,308.907 240.461,311.74 239,315.5C 238.5,364.499 238.333,413.499 238.5,462.5C 233.5,462.5 228.5,462.5 223.5,462.5C 223.831,441.66 223.497,420.993 222.5,400.5C 221.89,394.385 218.556,390.551 212.5,389C 199.5,388.333 186.5,388.333 173.5,389C 169.725,390.442 166.892,392.942 165,396.5C 164.5,418.497 164.333,440.497 164.5,462.5C 131.167,462.5 97.8333,462.5 64.5,462.5C 64.1734,453.318 64.5067,444.318 65.5,435.5C 91.7612,436.657 118.095,436.823 144.5,436C 148.624,435.018 150.624,432.352 150.5,428C 150.277,424.112 148.277,421.779 144.5,421C 118.095,420.177 91.7612,420.343 65.5,421.5C 64.1667,415.167 64.1667,408.833 65.5,402.5C 91.7909,403.649 118.124,403.815 144.5,403C 151.491,398.736 152.157,393.736 146.5,388C 119.124,387.184 91.791,387.351 64.5,388.5C 64.168,344.33 64.5013,300.33 65.5,256.5C 82.5036,290.676 110.17,306.842 148.5,305C 193.358,296.479 217.358,269.479 220.5,224C 216.886,179.05 192.886,152.384 148.5,144C 109.652,142.079 81.9852,158.579 65.5,193.5C 64.5029,173.674 64.1695,153.674 64.5,133.5 Z"/></g>
<g><path style="opacity:1" fill="#030403" d="M 65.5,256.5 C 64.107,251.82 62.607,247.154 61,242.5C 57.7674,225.627 59.2674,209.294 65.5,193.5C 81.9852,158.579 109.652,142.079 148.5,144C 192.886,152.384 216.886,179.05 220.5,224C 217.358,269.479 193.358,296.479 148.5,305C 110.17,306.842 82.5036,290.676 65.5,256.5 Z"/></g>
<g><path style="opacity:1" fill="#62b2f3" d="M 125.5,160.5 C 127.5,160.5 129.5,160.5 131.5,160.5C 131.5,169.5 131.5,178.5 131.5,187.5C 117.879,190.944 108.379,199.277 103,212.5C 99.3997,226.259 101.9,238.759 110.5,250C 105.899,256.939 100.899,263.605 95.5,270C 94.8333,270.667 94.1667,270.667 93.5,270C 75.7902,249.983 70.9569,227.15 79,201.5C 88.4207,180.911 103.921,167.245 125.5,160.5 Z"/></g>
<g><path style="opacity:1" fill="#fad52b" d="M 147.5,160.5 C 177.513,165.604 196.347,182.937 204,212.5C 204.667,219.833 204.667,227.167 204,234.5C 203.904,237.451 203.071,240.118 201.5,242.5C 193.717,239.442 186.05,236.108 178.5,232.5C 180.227,209.376 170.06,194.043 148,186.5C 147.5,177.84 147.334,169.173 147.5,160.5 Z"/></g>
<g><path style="opacity:1" fill="#ebf0f3" d="M 132.5,202.5 C 152.817,200.324 162.651,209.324 162,229.5C 157.674,242.16 148.84,247.993 135.5,247C 119.368,240.945 114.201,229.778 120,213.5C 123.127,208.54 127.294,204.873 132.5,202.5 Z"/></g>
<g><path style="opacity:1" fill="#040404" d="M 385.5,218.5 C 398.202,218.208 410.869,218.708 423.5,220C 426.635,221.266 428.302,223.599 428.5,227C 426.572,238.879 424.405,250.713 422,262.5C 417.333,267.833 412.667,267.833 408,262.5C 407.709,257.811 407.709,253.144 408,248.5C 394.967,261.201 381.634,273.534 368,285.5C 368.158,289.491 368.658,293.491 369.5,297.5C 366.479,319.353 354.146,327.853 332.5,323C 319.564,315.782 313.897,304.615 315.5,289.5C 305.833,283 296.167,276.5 286.5,270C 285.5,269.333 284.5,269.333 283.5,270C 276.05,274.49 268.05,275.657 259.5,273.5C 244.291,291.88 229.624,310.713 215.5,330C 222.081,340.51 221.914,351.01 215,361.5C 206.358,370.953 195.858,373.787 183.5,370C 172.902,364.883 167.236,356.383 166.5,344.5C 170.544,324.135 182.877,315.635 203.5,319C 217.333,301.167 231.167,283.333 245,265.5C 244.655,261.432 243.655,257.432 242,253.5C 241.146,231.687 251.646,221.187 273.5,222C 289.882,227.573 297.049,239.073 295,256.5C 305.333,263.5 315.667,270.5 326,277.5C 332.255,272.194 339.421,270.361 347.5,272C 350.72,273.525 354.053,274.192 357.5,274C 371.199,260.633 385.199,247.633 399.5,235C 395.5,234.667 391.5,234.333 387.5,234C 380.317,229.558 379.65,224.391 385.5,218.5 Z"/></g>
<g><path style="opacity:1" fill="#f8d42b" d="M 264.5,237.5 C 275.458,236.768 279.958,241.768 278,252.5C 274.723,258.109 269.89,259.942 263.5,258C 255.185,250.731 255.518,243.898 264.5,237.5 Z"/></g>
<g><path style="opacity:1" fill="#70d25f" d="M 190.5,255.5 C 179.753,271.89 164.753,282.39 145.5,287C 138.842,287.5 132.175,287.666 125.5,287.5C 121.307,287.047 117.307,285.881 113.5,284C 111.445,283.313 109.779,282.146 108.5,280.5C 113.179,273.144 118.345,266.144 124,259.5C 137.364,264.41 150.197,263.243 162.5,256C 165.42,252.573 168.753,249.739 172.5,247.5C 178.821,249.665 184.821,252.332 190.5,255.5 Z"/></g>
<g><path style="opacity:1" fill="#53c055" d="M 190.5,255.5 C 192.312,255.771 193.978,256.438 195.5,257.5C 180.456,281.257 158.79,291.757 130.5,289C 128.618,288.802 126.952,288.302 125.5,287.5C 132.175,287.666 138.842,287.5 145.5,287C 164.753,282.39 179.753,271.89 190.5,255.5 Z"/></g>
<g><path style="opacity:1" fill="#7b8589" d="M 388.5,283.5 C 388.5,343.5 388.5,403.5 388.5,463.5C 382.974,463.821 377.64,463.488 372.5,462.5C 377.5,462.5 382.5,462.5 387.5,462.5C 387.168,402.664 387.501,342.998 388.5,283.5 Z"/></g>
<g><path style="opacity:1" fill="#6fd05e" d="M 339.5,287.5 C 352.138,287.961 355.971,293.961 351,305.5C 347.319,308.36 343.152,309.193 338.5,308C 332.891,304.723 331.058,299.89 333,293.5C 334.494,290.686 336.66,288.686 339.5,287.5 Z"/></g>
<g><path style="opacity:1" fill="#63b4f5" d="M 428.5,288.5 C 428.667,344.834 428.5,401.168 428,457.5C 427.5,458 427,458.5 426.5,459C 419.174,459.5 411.841,459.666 404.5,459.5C 404.5,402.5 404.5,345.5 404.5,288.5C 412.5,288.5 420.5,288.5 428.5,288.5 Z"/></g>
<g><path style="opacity:1" fill="#43a5f4" d="M 428.5,288.5 C 430.496,346.157 431.163,404.157 430.5,462.5C 421.833,462.5 413.167,462.5 404.5,462.5C 404.5,461.5 404.5,460.5 404.5,459.5C 411.841,459.666 419.174,459.5 426.5,459C 427,458.5 427.5,458 428,457.5C 428.5,401.168 428.667,344.834 428.5,288.5 Z"/></g>
<g><path style="opacity:1" fill="#9c8519" d="M 281.5,322.5 C 280.833,322.5 280.167,322.5 279.5,322.5C 271.5,322.5 263.5,322.5 255.5,322.5C 255.5,368.167 255.5,413.833 255.5,459.5C 255.5,460.5 255.5,461.5 255.5,462.5C 264.167,462.5 272.833,462.5 281.5,462.5C 272.682,463.493 263.682,463.827 254.5,463.5C 254.5,416.167 254.5,368.833 254.5,321.5C 263.682,321.173 272.682,321.507 281.5,322.5 Z"/></g>
<g><path style="opacity:1" fill="#ffd92c" d="M 279.5,322.5 C 279.667,367.501 279.5,412.501 279,457.5C 278.5,458 278,458.5 277.5,459C 270.174,459.5 262.841,459.666 255.5,459.5C 255.5,413.833 255.5,368.167 255.5,322.5C 263.5,322.5 271.5,322.5 279.5,322.5 Z"/></g>
<g><path style="opacity:1" fill="#ffc701" d="M 279.5,322.5 C 280.167,322.5 280.833,322.5 281.5,322.5C 281.5,369.167 281.5,415.833 281.5,462.5C 272.833,462.5 264.167,462.5 255.5,462.5C 255.5,461.5 255.5,460.5 255.5,459.5C 262.841,459.666 270.174,459.5 277.5,459C 278,458.5 278.5,458 279,457.5C 279.5,412.501 279.667,367.501 279.5,322.5 Z"/></g>
<g><path style="opacity:1" fill="#f36458" d="M 189.5,334.5 C 201.146,333.971 205.646,339.304 203,350.5C 198.752,355.596 193.585,356.763 187.5,354C 180.524,346.713 181.191,340.213 189.5,334.5 Z"/></g>
<g><path style="opacity:1" fill="#040505" d="M 96.5,353.5 C 112.503,353.333 128.503,353.5 144.5,354C 149.617,355.732 151.45,359.232 150,364.5C 149.167,366.667 147.667,368.167 145.5,369C 129.167,369.667 112.833,369.667 96.5,369C 93.5872,367.187 91.9205,364.52 91.5,361C 92.5463,358.114 94.2129,355.614 96.5,353.5 Z"/></g>
<g><path style="opacity:1" fill="#6fd460" d="M 355.5,357.5 C 355.5,392.5 355.5,427.5 355.5,462.5C 346.833,462.5 338.167,462.5 329.5,462.5C 329.5,427.5 329.5,392.5 329.5,357.5C 338.167,357.5 346.833,357.5 355.5,357.5 Z"/></g>
<g><path style="opacity:1" fill="#357d37" d="M 355.5,357.5 C 356.498,392.663 356.832,427.996 356.5,463.5C 347.318,463.827 338.318,463.493 329.5,462.5C 338.167,462.5 346.833,462.5 355.5,462.5C 355.5,427.5 355.5,392.5 355.5,357.5 Z"/></g>
<g><path style="opacity:1" fill="#09090a" d="M 65.5,402.5 C 60.6867,398.116 60.3533,393.45 64.5,388.5C 91.791,387.351 119.124,387.184 146.5,388C 152.157,393.736 151.491,398.736 144.5,403C 118.124,403.815 91.7909,403.649 65.5,402.5 Z"/></g>
<g><path style="opacity:1" fill="#798286" d="M 222.5,400.5 C 223.497,420.993 223.831,441.66 223.5,462.5C 228.5,462.5 233.5,462.5 238.5,462.5C 233.36,463.488 228.026,463.821 222.5,463.5C 222.5,442.5 222.5,421.5 222.5,400.5 Z"/></g>
<g><path style="opacity:1" fill="#fb6558" d="M 180.5,404.5 C 189.167,404.5 197.833,404.5 206.5,404.5C 206.5,423.833 206.5,443.167 206.5,462.5C 197.833,462.5 189.167,462.5 180.5,462.5C 180.5,443.167 180.5,423.833 180.5,404.5 Z"/></g>
<g><path style="opacity:1" fill="#020202" d="M 65.5,435.5 C 60.2891,430.8 60.2891,426.133 65.5,421.5C 91.7612,420.343 118.095,420.177 144.5,421C 148.277,421.779 150.277,424.112 150.5,428C 150.624,432.352 148.624,435.018 144.5,436C 118.095,436.823 91.7612,436.657 65.5,435.5 Z"/></g>
</svg>
